# AST/ASF file generated using VICON BodyLanguage
# -----------------------------------------------
:version 1.10
:name VICON
:units
  mass 1.0
  length 0.45
  angle deg
:documentation
   .ast/.asf automatically generated from VICON data using
   VICON BodyBuilder and BodyLanguage model FoxedUp or BRILLIANT.MOD
:root
   order TX TY TZ RX RY RZ
   axis XYZ
   position 0 0 0  
   orientation 0 0 0 
:bonedata
  begin
     id 1 
     name lhipjoint
     direction 0.682418 -0.694059 0.22932 
     length 2.25561 
     axis 0 0 0  XYZ
  end
  begin
     id 2 
     name lfemur
     direction 0.34202 -0.939693 0  
     length 6.96448  
     axis 0 0 20  XYZ
    dof rx ry rz
    limits (-160.0 20.0)
           (-70.0 70.0)
           (-60.0 70.0)
  end
  begin
     id 3 
     name ltibia
     direction 0.34202 -0.939693 0   
     length 6.88553   
     axis 0 0 20   XYZ
    dof rx
    limits (-10.0 170.0)
  end
  begin
     id 4 
     name lfoot
     direction 0.0723587 -0.198804 0.977364   
     length 1.88518   
     axis -90 7.62852e-016 20   XYZ
    dof rx rz
    limits (-45.0 90.0)
           (-70.0 20.0)
  end
  begin
     id 5 
     name ltoes
     direction 1.53558e-011 -4.21962e-011 1   
     length 0.952124   
     axis -90 7.62852e-016 20   XYZ
    dof rx
    limits (-90.0 20.0)
  end
  begin
     id 6 
     name rhipjoint
     direction -0.657603 -0.71533 0.236348   
     length 2.18854  
     axis 0 0 0  XYZ 
  end
  begin
     id 7 
     name rfemur
     direction -0.34202 -0.939693 0   
     length 6.86686   
     axis 0 0 -20   XYZ
    dof rx ry rz
    limits (-160.0 20.0)
           (-70.0 70.0)
           (-70.0 60.0)
  end
  begin
     id 8 
     name rtibia
     direction -0.34202 -0.939693 0   
     length 6.59503   
     axis 0 0 -20   XYZ
    dof rx
    limits (-10.0 170.0)
 end
 begin
     id 9 
     name rfoot
     direction -0.101977 -0.280179 0.954516   
     length 1.93723  
     axis -90 -7.62852e-016 -20   XYZ
    dof rx rz
    limits (-45.0 90.0)
           (-20.0 70.0)
  end
  begin
     id 10 
     name rtoes
     direction -1.53564e-011 -4.21897e-011 1   
     length 0.970315   
     axis -90 -7.62852e-016 -20   XYZ
    dof rx
    limits (-90.0 20.0)
  end
  begin
     id 11 
     name lowerback
     direction -0.0339559 0.999421 -0.00235966   
     length 1.88543   
     axis 0 0 0   XYZ
    dof rx ry rz
    limits (-20.0 45.0)
           (-30.0 30.0)
           (-30.0 30.0)
  end
  begin
     id 12 
     name upperback
     direction 0.00401003 0.999739 0.0224689   
     length 1.8856   
     axis 0 0 0   XYZ
    dof rx ry rz
    limits (-20.0 45.0)
           (-30.0 30.0)
           (-30.0 30.0)
  end
  begin
     id 13 
     name thorax
     direction 0.0198619 0.999546 0.0226536   
     length 1.88352   
     axis 0 0 0   XYZ
    dof rx ry rz
    limits (-20.0 45.0)
           (-30.0 30.0)
           (-30.0 30.0)
  end
  begin
     id 14 
     name lowerneck
     direction -0.0461848 0.998632 0.0245198   
     length 1.34895   
     axis 0 0 0   XYZ
    dof rx ry rz
    limits (-20.0 45.0)
           (-30.0 30.0)
           (-30.0 30.0)
  end
  begin
     id 15 
     name upperneck
     direction -0.0180627 0.994724 -0.100984   
     length 1.35214   
     axis 0 0 0   XYZ
    dof rx ry rz
    limits (-20.0 45.0)
           (-30.0 30.0)
           (-30.0 30.0)
  end
  begin
     id 16
     name head
     direction -0.00374772 0.999293 -0.037403  
     length 1.3568  
     axis 0 0 0   XYZ
    dof rx ry rz
    limits (-20.0 45.0)
           (-30.0 30.0)
           (-30.0 30.0)
  end
  begin
     id 17 
     name lclavicle
     direction 0.971773 0.191119 0.138311  
     length 2.84954  
     axis 0 0 0   XYZ
    dof ry rz
    limits (-20.0 10.0)
           (0.0 20.0)
  end
  begin
     id 18 
     name lhumerus
     direction 1 -4.4897e-011 -2.43761e-027   
     length 4.40919   
     axis 180 -30 -90   XYZ
    dof rx ry rz
    limits (-60.0 90.0)
           (-90.0 90.0)
           (-90.0 90.0)
  end
  begin
     id 19
     name lradius
     direction 1 -4.4896e-011 -9.1621e-027   
     length 3.03857   
     axis 180 -30 -90   XYZ
    dof rx
    limits (-10.0 170.0)
  end
  begin
     id 20
     name lwrist
     direction 1 -4.4896e-011 -1.41363e-026   
     length 1.51928   
     axis 1.07133e-014 90 90   XYZ
    dof ry
    limits (-180.0 0.0)
 end
  begin
     id 21 
     name lhand
     direction 1 -4.48978e-011 -2.82725e-026   
     length 0.523208   
     axis 1.80403e-014 90 90   XYZ
    dof rx rz
    limits (-90.0 90.0)
           (-45.0 45.0)
  end
  begin
     id 22 
     name lfingers
     direction 1 -4.48977e-011 -5.6545e-026   
     length 0.421824   
     axis 3.60806e-014 90 90   XYZ
    dof rx
    limits (0.0 90.0)
  end
  begin
     id 23
     name lthumb
     direction 0.707107 -6.34962e-011 0.707107   
     length 0.605657   
     axis -90 45 2.85299e-015   XYZ
    dof rx rz
    limits (-45.0 45.0)
           (-45.0 45.0)
  end
  begin
     id 24 
     name rclavicle
     direction -0.957247 0.24311 0.156766   
     length 3.12406  
     axis 0 0 0   XYZ 
    dof ry rz
    limits (-10.0 20.0)
           (-20.0 0.0)
  end
  begin
     id 25 
     name rhumerus
     direction -1 -4.48964e-011 -1.70632e-027  
     length 4.61969   
     axis 180 30 90   XYZ
    dof rx ry rz
    limits (-90.0 60.0)
           (-90.0 90.0)
           (-90.0 90.0)
  end
  begin
     id 26 
     name rradius
     direction -1 -4.48966e-011 -6.60395e-027   
     length 3.09382   
     axis 180 30 90   XYZ
    dof rx
    limits (-10.0 170.0)
  end
  begin
     id 27 
     name rwrist
     direction -1 -4.48963e-011 -1.41363e-026   
     length 1.54691   
     axis 1.07133e-014 -90 -90   XYZ
    dof ry
    limits (-180.0 0.0)
  end
  begin
     id 28
     name rhand
     direction -1 -4.49013e-011 -2.82725e-026   
     length 0.500896   
     axis 1.80403e-014 -90 -90   XYZ
    dof rx rz
    limits (-90.0 90.0)
           (-45.0 45.0)
  end
  begin
     id 29
     name rfingers
     direction -1 -4.48902e-011 -5.6545e-026   
     length 0.403835   
     axis 3.60806e-014 -90 -90   XYZ
    dof rx
    limits (0.0 90.0)
  end
  begin
     id 30
     name rthumb
     direction -0.707107 -6.34953e-011 0.707107   
     length 0.579829   
     axis -90 -45 -2.85299e-015   XYZ
    dof rx rz
    limits (-45.0 45.0)
           (-45.0 45.0)
  end
:hierarchy
  begin
    root lhipjoint rhipjoint lowerback
    lhipjoint lfemur
    lfemur ltibia
    ltibia lfoot
    lfoot ltoes
    rhipjoint rfemur
    rfemur rtibia
    rtibia rfoot
    rfoot rtoes
    lowerback upperback
    upperback thorax
    thorax lowerneck lclavicle rclavicle
    lowerneck upperneck
    upperneck head
    lclavicle lhumerus
    lhumerus lradius
    lradius lwrist
    lwrist lhand lthumb
    lhand lfingers
    rclavicle rhumerus
    rhumerus rradius
    rradius rwrist
    rwrist rhand rthumb
    rhand rfingers
  end

#!OML:ASF E:\madness\Project 1\Capture day 1\Session 1\Female1.ASF
:FULLY-SPECIFIED
:DEGREES
650
root 18.4954 14.6347 3.32775 201.334 -29.0766 -181.197
lowerback 36.9911 3.88336 -1.39157
upperback 11.4641 1.91719 5.13982
thorax -5.90334 -0.388877 5.59114
lowerneck -9.31972 -5.21865 -3.78883
upperneck 10.2666 -6.14304 -8.46841
head 4.46621 -3.87343 -2.4138
rclavicle -1.82882e-014 1.66979e-014
rhumerus 1.38449 9.11601 -54.8325
rradius 86.7685
rwrist -46.233
rhand -17.1905 -47.9774
rfingers 7.12502
rthumb 9.05155 -77.7632
lclavicle -1.82882e-014 1.66979e-014
lhumerus -56.2684 11.0768 78.9286
lradius 78.0249
lwrist 1.78046
lhand -52.8304 -19.4153
lfingers 7.12502
lthumb -25.3033 8.92638
rfemur -57.5044 16.2244 -14.3972
rtibia 42.057
rfoot -6.07771 -14.6721
rtoes -11.8021
lfemur -50.408 -8.37484 -12.3357
ltibia 60.6209
lfoot -21.175 22.2553
ltoes -12.8625
651
root 18.421 14.6756 3.41335 201.586 -28.5097 -180.971
lowerback 37.0756 3.92695 -1.37372
upperback 11.4503 1.96544 5.25913
thorax -5.95885 -0.376735 5.69275
lowerneck -9.61704 -5.479 -4.44186
upperneck 10.2295 -6.44728 -7.81447
head 4.54064 -4.00753 -2.14166
rclavicle 1.51076e-014 -3.57812e-014
rhumerus 1.43127 12.0827 -55.5478
rradius 75.8182
rwrist -42.6809
rhand -16.188 -55.0192
rfingers 7.12502
rthumb 10.0188 -84.7607
lclavicle 1.51076e-014 -3.57812e-014
lhumerus -56.927 11.3655 79.1466
lradius 78.0433
lwrist 1.62513
lhand -52.9459 -19.5629
lfingers 7.12502
lthumb -25.4139 8.76308
rfemur -57.9645 15.8937 -14.3482
rtibia 41.5138
rfoot -5.04076 -15.0396
rtoes -7.29566
lfemur -50.6416 -8.49786 -12.4854
ltibia 60.1846
lfoot -20.6003 22.6364
ltoes -12.6884
652
root 18.3444 14.7131 3.50202 201.827 -28.0782 -180.738
lowerback 37.241 3.80225 -0.978899
upperback 11.4212 1.92471 5.18754
thorax -6.02002 -0.394452 5.42334
lowerneck -10.1913 -5.59513 -4.02877
upperneck 10.3861 -6.602 -7.82483
head 4.66556 -4.07735 -2.24418
rclavicle 2.94201e-014 -2.78299e-014
rhumerus 1.60989 14.9798 -56.126
rradius 65.4373
rwrist -42.4271
rhand -9.36926 -54.521
rfingers 7.12502
rthumb 16.591 -83.8318
lclavicle 2.94201e-014 -2.78299e-014
lhumerus -57.3887 11.4058 79.1484
lradius 78.0188
lwrist 1.74228
lhand -53.0661 -19.7045
lfingers 7.12502
lthumb -25.5291 8.605
rfemur -58.3643 15.5385 -14.2311
rtibia 41.0372
rfoot -4.05794 -15.1597
rtoes -4.35646
lfemur -50.9176 -8.71246 -12.589
ltibia 59.7761
lfoot -20.3773 22.6399
ltoes -11.4212
653
root 18.2739 14.7428 3.58288 202.147 -27.5472 -180.544
lowerback 37.3728 3.7925 -0.639079
upperback 11.388 2.01671 5.11567
thorax -6.08868 -0.347348 5.13343
lowerneck -10.5917 -5.87391 -4.09302
upperneck 10.3568 -6.97252 -7.45194
head 4.72948 -4.23573 -2.15918
rclavicle -7.63333e-014 -2.82274e-014
rhumerus 1.68331 17.9639 -56.592
rradius 56.0805
rwrist -46.5424
rhand -10.4646 -59.1805
rfingers 7.12502
rthumb 15.5362 -88.5764
lclavicle -7.63333e-014 -2.82274e-014
lhumerus -57.6967 11.0782 79.3098
lradius 77.9588
lwrist 1.84728
lhand -53.2209 -19.5032
lfingers 7.12502
lthumb -25.6773 8.78504
rfemur -58.9588 15.4378 -14.353
rtibia 40.6726
rfoot -3.43857 -15.2276
rtoes -3.04145
lfemur -51.257 -8.7188 -12.8025
ltibia 59.418
lfoot -19.8795 22.8662
ltoes -11.3414
654
root 18.2082 14.7719 3.65802 202.492 -26.9912 -180.402
lowerback 37.465 3.96118 -0.389216
upperback 11.4295 2.29078 5.18024
thorax -6.0889 -0.227461 4.96854
lowerneck -10.88 -6.31907 -4.33289
upperneck 10.1128 -7.57353 -7.18809
head 4.70836 -4.51926 -2.08792
rclavicle 7.4743e-014 -2.3059e-014
rhumerus 1.2657 20.314 -57.1563
rradius 48.5723
rwrist -52.8996
rhand -14.5057 -62.667
rfingers 7.12502
rthumb 11.6415 -267.676
lclavicle 7.4743e-014 -2.3059e-014
lhumerus -57.6608 10.4986 79.7687
lradius 77.8147
lwrist 1.81046
lhand -53.1341 -19.7234
lfingers 7.12502
lthumb -25.5942 8.57679
rfemur -59.5764 15.3163 -14.4724
rtibia 40.4574
rfoot -3.35372 -15.0005
rtoes -2.18897
lfemur -51.5937 -8.69785 -13.046
ltibia 59.0867
lfoot -19.433 23.1661
ltoes -11.4095
655
root 18.1443 14.7914 3.73042 203.055 -26.5079 -180.522
lowerback 37.5901 4.10078 -0.227826
upperback 11.4482 2.50746 5.23449
thorax -6.12308 -0.130912 4.8602
lowerneck -11.0866 -6.73581 -4.44048
upperneck 9.54093 -8.17212 -6.946
head 4.56754 -4.78681 -2.03058
rclavicle 1.43125e-014 -1.55052e-014
rhumerus 0.0869489 21.7941 -58.2353
rradius 42.4371
rwrist -56.7603
rhand -18.5341 -63.3956
rfingers 7.12502
rthumb 7.75481 -266.767
lclavicle 1.43125e-014 -1.55052e-014
lhumerus -57.3824 9.96984 80.2888
lradius 77.7021
lwrist 1.90805
lhand -52.415 -19.575
lfingers 7.12502
lthumb -24.9052 8.82237
rfemur -60.2783 14.9799 -14.7409
rtibia 40.4662
rfoot -3.48162 -14.3912
rtoes -2.65042
lfemur -52.0875 -8.72754 -13.4599
ltibia 58.7781
lfoot -19.4211 22.9665
ltoes -10.442
656
root 18.0912 14.8112 3.79159 203.62 -25.8009 -180.652
lowerback 37.7419 4.38326 -0.344884
upperback 11.4872 2.79342 5.25869
thorax -6.16292 -0.00725424 4.83911
lowerneck -11.3233 -6.98413 -4.42172
upperneck 8.68768 -8.56471 -6.49637
head 4.35237 -4.92289 -1.90707
rclavicle -4.13472e-014 2.38542e-015
rhumerus -1.5976 22.2682 -60.0204
rradius 37.2797
rwrist -52.8032
rhand -20.5666 -62.2016
rfingers 7.12502
rthumb 5.79282 -267.898
lclavicle -4.13472e-014 2.38542e-015
lhumerus -57.0168 9.47725 80.7099
lradius 77.5492
lwrist 2.0534
lhand -51.91 -19.1862
lfingers 7.12502
lthumb -24.4212 9.2773
rfemur -61.238 14.9261 -15.0593
rtibia 40.755
rfoot -3.12289 -13.6331
rtoes -6.64704
lfemur -52.4975 -8.46939 -13.9496
ltibia 58.4786
lfoot -19.2622 22.6769
ltoes -9.49238
657
root 18.0448 14.8343 3.84623 203.935 -25.128 -180.65
lowerback 37.9684 4.69992 -0.172269
upperback 11.5647 3.20389 5.2186
thorax -6.17105 0.173772 4.54902
lowerneck -11.3256 -7.32069 -4.49209
upperneck 7.83667 -9.08655 -5.90702
head 4.11049 -5.11655 -1.72693
rclavicle 3.18055e-015 2.8625e-014
rhumerus -3.79625 19.6505 -62.2326
rradius 32.5276
rwrist -42.6852
rhand -19.1021 -62.703
rfingers 7.12502
rthumb 7.20659 -267.44
lclavicle 3.18055e-015 2.8625e-014
lhumerus -56.5439 8.6224 80.9797
lradius 76.9598
lwrist 1.29206
lhand -52.5219 -20.7022
lfingers 7.12502
lthumb -25.0077 7.68095
rfemur -62.0251 14.9149 -14.9445
rtibia 41.3041
rfoot -2.78338 -12.7579
rtoes -9.75977
lfemur -52.6877 -8.28601 -14.239
ltibia 58.1929
lfoot -18.9573 22.6273
ltoes -8.65492
658
root 17.9903 14.8436 3.90312 204.296 -24.8786 -180.823
lowerback 38.2399 4.65146 0.293507
upperback 11.5786 3.28183 5.16851
thorax -6.21472 0.207917 4.22068
lowerneck -10.6372 -7.71347 -5.64947
upperneck 6.3716 -9.64765 -4.23421
head 4.07005 -5.27167 -1.11054
rclavicle -3.49861e-014 -6.12257e-014
rhumerus -6.70259 17.0887 -64.1391
rradius 29.5778
rwrist -30.4694
rhand -14.5378 -58.7669
rfingers 7.12502
rthumb 11.6105 -88.4252
lclavicle -3.49861e-014 -6.12257e-014
lhumerus -56.3101 8.14426 81.0972
lradius 77.0561
lwrist 1.29504
lhand -50.985 -19.4775
lfingers 7.12502
lthumb -23.5343 9.10274
rfemur -62.5612 14.674 -14.8304
rtibia 42.1754
rfoot -3.25329 -12.2292
rtoes -8.57515
lfemur -53.0379 -8.49755 -14.547
ltibia 57.9605
lfoot -18.842 22.4804
ltoes -7.50432
